# xmcd
#
# Track frame offsets: 
#        182
#        15705
#        34750
#        48677
#        67585
#        89820
#        106342
#        123090
#        139337
#        154130
#        168380
#
# Disc length: 2444 seconds
#
# Revision: 3
# Processed by: cddbd v1.5.2PL0 Copyright (c) Steve Scherf et al.
# Submitted via: ExactAudioCopy v0.99pb5
#
DISCID=90098a0b
DTITLE=Mid South - Give What It Takes
DYEAR=1994
DGENRE=Country
TTITLE0=You Can't Walk This Road Alone
TTITLE1=Without You (I Haven't Got A Prayer)
TTITLE2=Give What It Takes
TTITLE3=First Love
TTITLE4=That's What Love Can Do
TTITLE5=Love Will Have Its Way
TTITLE6=Here With You
TTITLE7=Treasure Of My Heart
TTITLE8=Love Comes Through
TTITLE9=Far And Away
TTITLE10=Long Walk Home
EXTD=
EXTT0=
EXTT1=
EXTT2=
EXTT3=
EXTT4=
EXTT5=
EXTT6=
EXTT7=
EXTT8=
EXTT9=
EXTT10=
PLAYORDER=
